<?xml version="1.0" encoding="UTF-8" standalone="no"?>
<!-- Generator: Adobe Illustrator 18.1.1, SVG Export Plug-In . SVG Version: 6.00 Build 0)  -->

<svg
   xmlns:dc="http://purl.org/dc/elements/1.1/"
   xmlns:cc="http://creativecommons.org/ns#"
   xmlns:rdf="http://www.w3.org/1999/02/22-rdf-syntax-ns#"
   xmlns:svg="http://www.w3.org/2000/svg"
   xmlns="http://www.w3.org/2000/svg"
   xmlns:sodipodi="http://sodipodi.sourceforge.net/DTD/sodipodi-0.dtd"
   xmlns:inkscape="http://www.inkscape.org/namespaces/inkscape"
   version="1.1"
   id="Capa_1"
   x="0px"
   y="0px"
   viewBox="0 0 37.463 37.463"
   style="enable-background:new 0 0 37.463 37.463;"
   xml:space="preserve"
   width="512px"
   height="512px"
   inkscape:version="0.91 r13725"
   sodipodi:docname="ic_divinst.svg"><metadata
     id="metadata4839"><rdf:RDF><cc:Work
         rdf:about=""><dc:format>image/svg+xml</dc:format><dc:type
           rdf:resource="http://purl.org/dc/dcmitype/StillImage" /><dc:title></dc:title></cc:Work></rdf:RDF></metadata><defs
     id="defs4837" /><sodipodi:namedview
     pagecolor="#ffffff"
     bordercolor="#666666"
     borderopacity="1"
     objecttolerance="10"
     gridtolerance="10"
     guidetolerance="10"
     inkscape:pageopacity="0"
     inkscape:pageshadow="2"
     inkscape:window-width="1366"
     inkscape:window-height="744"
     id="namedview4835"
     showgrid="false"
     inkscape:zoom="0.94"
     inkscape:cx="139.39038"
     inkscape:cy="299.77537"
     inkscape:window-x="0"
     inkscape:window-y="24"
     inkscape:window-maximized="1"
     inkscape:current-layer="Capa_1" /><g
     id="g4801"
     style="fill:#ffffff"
     transform="matrix(0.67170875,0,0,0.67170875,12.298776,14.880772)"><path
       d="m 36.355,29.542 0,0 0,-7.679 -1.01,-6.055 -9.622,0 3.126,2.338 0,3.704 -2.018,-1.493 0,0.735 -0.599,0 0,8.448 -0.624,0 0,-9.257 0.599,0 0,-1.112 -0.925,0 -7.014,-5.162 -6.774,5.287 -0.821,0 0,1.114 0.675,0 0,9.131 -0.658,0 0,-8.322 -0.675,0 0,-0.466 -1.434,1.191 0,-3.779 2.873,-2.356 -9.952,0 -1.01,6.055 0,7.678 -0.492,0 0,2.902 37.463,0 0,-2.902 -1.108,0 z M 4.93,28.044 l -3.347,0 0,-1.832 3.347,0 0,1.832 z m 0,-2.926 -3.347,0 0,-1.83 3.347,0 0,1.83 z m 1.388,2.926 0,-1.832 3.346,0 0,1.832 -3.346,0 z m 0.001,-2.926 0,-1.83 3.346,0 0,1.83 -3.346,0 z m 12.077,-8.84 c 0.733,0 1.326,0.595 1.326,1.326 0,0.731 -0.593,1.326 -1.326,1.326 -0.732,0 -1.326,-0.595 -1.326,-1.326 0,-0.731 0.594,-1.326 1.326,-1.326 z m 5.388,13.262 -0.735,0 0,-8.358 -9.507,0 0,8.358 -0.666,0 0,-9.131 0.64,0 0,-0.43 9.852,0 0,0.304 0.416,0 0,9.257 z m 6.402,-1.686 -3.346,0 0,-1.832 3.346,0 0,1.832 z m 0,-2.927 -3.346,0 0,-1.83 3.346,0 0,1.83 z m 4.735,2.927 -3.346,0 0,-1.832 3.346,0 0,1.832 z m 0,-2.927 -3.346,0 0,-1.83 3.346,0 0,1.83 z m -16.626,-14.052 -0.204,0 0,-5.465 0.427,0 0,0.104 c 0.468,0.204 1.601,0.591 2.239,-0.101 0.817,-0.885 2.248,0 2.248,0 l 0,2.522 c 0,0 -1.158,-0.953 -2.248,0 -0.829,0.724 -1.814,0.347 -2.239,0.124 l 0,2.815 0,10e-4 -0.221,0 9.928,7.425 0,2.111 -10.042,-7.427 -8.945,7.427 0,-2.111 9.057,-7.425 z"
       id="path4803"
       style="fill:#ffffff"
       inkscape:connector-curvature="0" /></g><g
     id="g4805" /><g
     id="g4807" /><g
     id="g4809" /><g
     id="g4811" /><g
     id="g4813" /><g
     id="g4815" /><g
     id="g4817" /><g
     id="g4819" /><g
     id="g4821" /><g
     id="g4823" /><g
     id="g4825" /><g
     id="g4827" /><g
     id="g4829" /><g
     id="g4831" /><g
     id="g4833" /><path
     inkscape:connector-curvature="0"
     style="fill:#ffffff"
     d="M 7.0523904,0.94812968 6.8696107,1.5211854 c -0.073376,0.077763 -0.1296858,0.1860027 -0.1296858,0.2546411 0,0.076734 -0.035156,0.1612619 -0.078116,0.1878152 -0.039736,0.024559 -0.07154,0.2215541 -0.076291,0.4485579 L 6.014445,4.2029245 c 0.1635587,0.00534 0.1896466,0.046451 0.2705077,0.3297062 0.050433,0.1766483 0.1163974,0.3564666 0.1466212,0.3994305 0.030224,0.042963 0.079728,0.3153946 0.1098519,0.6054014 0.030117,0.2900067 0.087084,0.527285 0.1266335,0.527285 0.039544,0 0.07186,0.046485 0.07186,0.1034431 0,0.056954 0.087874,0.1862239 0.1952899,0.2871383 l 0.195291,0.1833899 -0.186747,0.1504348 C 6.7852712,6.9166747 6.7629691,6.9885995 6.797286,7.2636493 6.8195348,7.4419927 6.8685377,7.6213494 6.9060682,7.6621652 7.0767125,7.8477195 6.9228402,8.2986466 6.5659881,8.6589105 6.4917898,8.7338166 6.3793202,8.9190299 6.3160765,9.0703943 6.2128929,9.3173442 6.1703255,9.3456325 5.9018472,9.3456325 5.6642344,9.3456325 5.5433243,9.287966 5.3142961,9.065512 5.0719432,8.8301163 4.9892212,8.7934236 4.7958604,8.8358931 4.6693091,8.8636881 4.5469663,8.9350583 4.5241314,8.9945669 4.4695769,9.1367478 3.3988199,9.0618471 3.2156836,8.9030243 3.1257595,8.8250403 2.9933332,8.8089558 2.755225,8.8470308 2.4840404,8.8903946 2.3564995,8.865148 2.078115,8.7130738 1.7414736,8.5291756 1.7304432,8.5281928 1.4907176,8.665777 1.3188936,8.7643891 1.2304013,8.7800837 1.1922879,8.718414 1.1624805,8.6701904 0.89342149,8.595951 0.58276769,8.6560127 c 0.004697,0.3192723 0.0165051,0.5396931 0.005979,1.3465903 -0.006726,0.511706 -0.0438037,0.95111 -0.0823868,0.976455 -0.0385831,0.02534 -0.0946108,0.202425 -0.12449725,0.393633 -0.0298928,0.191204 -0.0868067,0.386721 -0.12648192,0.434521 -0.070419,0.08485 0.30785883,0.584957 0.44245665,0.584957 0.12024392,0 0.65208763,0.582484 0.65208763,0.714184 0,0.07467 0.03063,0.154774 0.068049,0.177897 0.037409,0.02313 0.089593,0.149832 0.1159532,0.281646 0.026359,0.131816 0.1486731,0.387453 0.2717291,0.568022 0.123057,0.180569 0.2483347,0.429118 0.2784421,0.552459 0.086775,0.355477 0.263942,0.479462 0.6764994,0.473275 0.2955526,-0.0044 0.4331739,-0.05774 0.705488,-0.273407 0.2931601,-0.232186 0.3958377,-0.267762 0.7709404,-0.267762 0.3366659,0 0.4935724,0.04338 0.7062503,0.195291 0.1503737,0.10741 0.2975308,0.228766 0.3269603,0.269745 0.032743,0.04559 0.1300648,0.0335 0.2508265,-0.03112 0.1780396,-0.09528 0.2224294,-0.08648 0.4542035,0.09002 0.141297,0.107598 0.3272336,0.221257 0.4131617,0.252657 0.085931,0.0314 0.331994,0.261955 0.5468146,0.512181 0.2148195,0.250224 0.4440912,0.458011 0.5094337,0.461831 0.066383,0.0038 0.2037335,-0.156706 0.3113969,-0.364032 0.1059775,-0.20408 0.2967288,-0.485299 0.4238431,-0.624932 l 0.2311446,-0.253877 0.9958306,0 0.99583,0 0.0238,4.19219 c 0.01852,3.247429 0.114068,4.15409 0.18995,4.189902 l 1.215837,0.247623 c 0.602382,0.122619 1.095387,0.09796 1.191275,0.158369 0.08853,0.05576 0.512486,0.126032 0.942125,0.156233 0.42964,0.0302 0.819596,0.08622 0.866603,0.124497 0.04701,0.03828 0.503985,0.07867 1.015511,0.08971 l 0.930073,0.02013 0.02517,-0.273407 c 0.0138,-0.150373 0.05775,-0.306894 0.09764,-0.34771 0.0399,-0.04081 0.07247,-0.206693 0.07247,-0.368611 l 0,-0.294308 0.64446,0.04836 c 0.354453,0.02666 0.662036,0.07416 0.683517,0.105426 0.0065,0.0095 0.06268,0.02235 0.10375,0.03432 a 1.5213744,1.338246 0 0 1 0.03951,-0.0566 1.5213744,1.338246 0 0 1 0.09201,-0.106493 1.5213744,1.338246 0 0 1 0.02212,-0.0209 c -0.04892,-0.04201 -0.05247,-0.145904 -0.03647,-0.437879 0.0141,-0.257329 0.06189,-0.490294 0.106194,-0.517672 0.04703,-0.02906 0.09015,-0.493735 0.1036,-1.116515 0.01267,-0.5867 0.0569,-1.109511 0.09825,-1.161827 0.04136,-0.05231 0.09972,-0.287634 0.129684,-0.522861 0.02996,-0.235227 0.08269,-0.463718 0.117175,-0.507756 0.03448,-0.04404 0.08706,-0.271533 0.116869,-0.505619 0.03682,-0.289152 0.102746,-0.459625 0.205666,-0.53171 0.09696,-0.06791 0.151502,-0.197303 0.151502,-0.359457 0,-0.139346 0.03594,-0.289202 0.07979,-0.333063 0.04386,-0.04386 0.101593,-0.313896 0.128312,-0.600061 l 0.04852,-0.520266 0.281799,-0.05081 c 0.154975,-0.02787 0.31695,-0.07643 0.359914,-0.107868 0.02737,-0.02004 0.110132,-0.04531 0.186441,-0.06912 a 1.3241594,1.3805064 0 0 1 6.26e-4,-0.01236 1.3241594,1.3805064 0 0 1 0.01984,-0.136399 1.3241594,1.3805064 0 0 1 0.0022,-0.0092 c -0.05672,-0.08749 -0.122613,-0.196959 -0.197297,-0.286834 -0.122383,-0.147273 -0.26814,-0.267762 -0.323756,-0.267762 -0.05562,0 -0.12128,-0.05273 -0.146011,-0.117175 -0.02473,-0.06444 -0.08357,-0.117174 -0.130752,-0.117174 -0.04718,0 -0.200938,-0.08788 -0.34176,-0.195291 -0.140822,-0.107409 -0.308868,-0.19529 -0.373341,-0.19529 -0.06447,0 -0.180843,-0.0703 -0.258607,-0.156233 -0.07776,-0.08593 -0.189705,-0.156233 -0.248844,-0.156233 -0.05913,0 -0.127017,-0.05063 -0.150739,-0.112445 -0.02372,-0.06182 -0.142099,-0.134096 -0.263032,-0.160657 -0.128638,-0.02825 -0.236841,-0.113194 -0.260745,-0.204598 -0.02247,-0.08593 -0.146814,-0.196151 -0.276306,-0.245028 -0.12949,-0.04888 -0.277803,-0.168342 -0.329705,-0.265321 -0.05191,-0.09698 -0.194766,-0.19839 -0.3175,-0.225347 -0.122736,-0.02696 -0.223211,-0.07918 -0.223211,-0.116107 0,-0.03692 -0.166974,-0.08879 -0.371053,-0.115342 -0.204079,-0.02655 -0.459511,-0.09607 -0.567564,-0.154555 -0.237588,-0.128581 -2.549276,-0.09966 -2.682502,0.03357 -0.144863,0.144862 -0.359915,0.08724 -0.5787,-0.155164 -0.168733,-0.186952 -0.300079,-0.246897 -0.623864,-0.284393 -0.225561,-0.02613 -0.41011,-0.07491 -0.41011,-0.108478 0,-0.03357 -0.105458,-0.08414 -0.234348,-0.112444 -0.128893,-0.02831 -0.23435,-0.08388 -0.23435,-0.12343 0,-0.03956 -0.04535,-0.07186 -0.100845,-0.07186 -0.172834,0 -0.784564,-0.678705 -0.732952,-0.813203 0.02697,-0.07027 0.09714,-0.10231 0.166151,-0.07583 0.172923,0.06638 0.238678,-0.17634 0.114929,-0.424411 -0.110009,-0.220603 -0.126602,-0.279623 -0.141231,-0.5046822 -0.005,-0.07625 -0.09688,-0.1719996 -0.204291,-0.2128364 C 10.108708,9.5391445 10.020828,9.456381 10.020828,9.3961331 10.020828,9.3358841 9.9713127,9.2455506 9.9108242,9.19535 9.850334,9.1451492 9.7432322,8.9826127 9.6728132,8.8342143 9.6023942,8.6858168 9.5113006,8.5644694 9.4703522,8.5644694 c -0.040948,0 -0.074455,-0.047335 -0.074455,-0.1051214 0,-0.057787 -0.065417,-0.1642535 -0.1454002,-0.2366369 C 9.1349556,8.1181823 9.1112965,8.0071069 9.135154,7.6832203 9.151675,7.4589383 9.199516,7.2637819 9.2414956,7.2494609 c 0.041979,-0.014322 0.076285,-0.1170581 0.076285,-0.2282458 0,-0.1111876 0.058882,-0.2672085 0.1309058,-0.3467941 0.09857,-0.1089182 0.1088607,-0.1669882 0.041348,-0.2345018 -0.020853,-0.020854 -0.01674,-0.037324 -0.020139,-0.054925 a 1.1410308,1.0142497 0 0 1 -0.041652,-0.028226 1.1410308,1.0142497 0 0 1 -0.083455,-0.069116 1.1410308,1.0142497 0 0 1 -0.075218,-0.076133 1.1410308,1.0142497 0 0 1 -0.066367,-0.082541 1.1410308,1.0142497 0 0 1 -0.056757,-0.087881 1.1410308,1.0142497 0 0 1 -0.046534,-0.09261 1.1410308,1.0142497 0 0 1 -0.036007,-0.09612 1.1410308,1.0142497 0 0 1 -0.025021,-0.099019 1.1410308,1.0142497 0 0 1 -0.013732,-0.1005446 1.1410308,1.0142497 0 0 1 -0.00289,-0.071709 1.1410308,1.0142497 0 0 1 0.0058,-0.1013068 1.1410308,1.0142497 0 0 1 0.00565,-0.033871 C 8.9622774,4.9946613 8.7941134,4.7424237 8.5303645,4.7392116 8.2977123,4.736376 8.101724,4.4458856 8.1661778,4.1994155 8.1901668,4.1076829 8.1528338,3.9932743 8.0763135,3.924025 7.9314997,3.7929701 7.8631471,3.330677 7.9885855,3.330677 c 0.09727,0 0.1054192,-0.3311827 0.01068,-0.4336065 C 7.8822614,2.7705729 7.8206144,2.2541945 7.9155039,2.1955494 7.9710683,2.1612095 7.9158163,2.0574343 7.7617122,1.9067323 7.6294119,1.7773841 7.521108,1.6268955 7.521108,1.5721445 c 0,-0.054752 -0.052729,-0.1199077 -0.1171746,-0.144637 -0.064451,-0.024731 -0.1171745,-0.092222 -0.1171745,-0.1499778 0,-0.057756 -0.1054577,-0.2059138 -0.2343492,-0.32940002 z"
     id="path4209" /></svg>