<?xml version="1.0" encoding="UTF-8" standalone="no"?>
<!-- Generator: Adobe Illustrator 19.0.0, SVG Export Plug-In . SVG Version: 6.00 Build 0)  -->

<svg
   xmlns:dc="http://purl.org/dc/elements/1.1/"
   xmlns:cc="http://creativecommons.org/ns#"
   xmlns:rdf="http://www.w3.org/1999/02/22-rdf-syntax-ns#"
   xmlns:svg="http://www.w3.org/2000/svg"
   xmlns="http://www.w3.org/2000/svg"
   xmlns:sodipodi="http://sodipodi.sourceforge.net/DTD/sodipodi-0.dtd"
   xmlns:inkscape="http://www.inkscape.org/namespaces/inkscape"
   version="1.1"
   id="Capa_1"
   x="0px"
   y="0px"
   viewBox="0 0 512 512"
   style="enable-background:new 0 0 512 512;"
   xml:space="preserve"
   inkscape:version="0.91 r13725"
   sodipodi:docname="ic_positividad.svg"><metadata
     id="metadata49"><rdf:RDF><cc:Work
         rdf:about=""><dc:format>image/svg+xml</dc:format><dc:type
           rdf:resource="http://purl.org/dc/dcmitype/StillImage" /><dc:title></dc:title></cc:Work></rdf:RDF></metadata><defs
     id="defs47" /><sodipodi:namedview
     pagecolor="#ffffff"
     bordercolor="#666666"
     borderopacity="1"
     objecttolerance="10"
     gridtolerance="10"
     guidetolerance="10"
     inkscape:pageopacity="0"
     inkscape:pageshadow="2"
     inkscape:window-width="1366"
     inkscape:window-height="744"
     id="namedview45"
     showgrid="false"
     inkscape:zoom="1.1796875"
     inkscape:cx="256"
     inkscape:cy="256"
     inkscape:window-x="0"
     inkscape:window-y="24"
     inkscape:window-maximized="1"
     inkscape:current-layer="Capa_1" /><g
     id="g3"
     style="fill:#ffffff"><g
       id="g5"
       style="fill:#ffffff"><path
         d="M336,32h-34.752C294.656,13.376,276.864,0,256,0s-38.656,13.376-45.28,32H176c-8.832,0-16,7.168-16,16v64    c0,8.832,7.168,16,16,16h160c8.832,0,16-7.168,16-16V48C352,39.168,344.832,32,336,32z"
         id="path7"
         style="fill:#ffffff" /></g></g><g
     id="g9"
     style="fill:#ffffff"><g
       id="g11"
       style="fill:#ffffff"><path
         d="m 416,64 -32,0 0,48 c 0,26.464 -21.536,48 -48,48 l -160,0 c -26.464,0 -48,-21.536 -48,-48 l 0,-48 -32,0 C 78.368,64 64,78.368 64,96 l 0,384 c 0,17.952 14.048,32 32,32 l 320,0 c 17.952,0 32,-14.048 32,-32 L 448,96 C 448,78.048 433.952,64 416,64 Z m -176,316 -104,0 0,-22 104,0 z m 2.3e-4,-152 -2.3e-4,24 -40,0 0,40 -24,0 0,-40 -40,0 0,-24 40,0 0,-40 24,0 0,40 z M 368,384 l -64,0 c -8.832,0 -16,-7.168 -16,-16 0,-8.832 7.168,-16 16,-16 l 64,0 c 8.832,0 16,7.168 16,16 0,8.832 -7.168,16 -16,16 z m 0,-128 -64,0 c -8.832,0 -16,-7.168 -16,-16 0,-8.832 7.168,-16 16,-16 l 64,0 c 8.832,0 16,7.168 16,16 0,8.832 -7.168,16 -16,16 z"
         id="path13"
         inkscape:connector-curvature="0"
         sodipodi:nodetypes="scsssscssssssssccccccccccccccccccssssssssssssss"
         style="fill:#ffffff" /></g></g><g
     id="g15" /><g
     id="g17" /><g
     id="g19" /><g
     id="g21" /><g
     id="g23" /><g
     id="g25" /><g
     id="g27" /><g
     id="g29" /><g
     id="g31" /><g
     id="g33" /><g
     id="g35" /><g
     id="g37" /><g
     id="g39" /><g
     id="g41" /><g
     id="g43" /></svg>